Coordinates
nRows=230
nColumns=2
inDegrees=yes
endheader
time	ankle_angle_r	
3.22681	 -0.477315	
3.26008	 -0.477411	
3.29335	 -0.453278	
3.32661	 -0.524893	
3.35988	 -0.427246	
3.39315	 -0.452988	
3.42641	 -0.513926	
3.45968	 -0.483312	
3.49294	 -0.523926	
3.52621	 -0.518799	
3.55948	 -0.493540	
3.59274	 -0.559219	
3.62601	 -0.538411	
3.65927	 -0.493830	
3.69254	 -0.549316	
3.72581	 -0.507314	
3.75907	 -0.461344	
3.79234	 -0.503540	
3.8256	 -0.466990	
3.85887	 -0.463893	
3.89214	 -0.463990	
3.9254	 -0.445118	
3.95867	 -0.475443	
3.99194	 -0.457764	
4.0252	 -0.451151	
4.05847	 -0.433956	
4.09173	 -0.473022	
4.125	 -0.488281	
4.15827	 -0.464763	
4.19153	 -0.457764	
4.2248	 -0.443378	
4.25806	 -0.420636	
4.29133	 -0.495667	
4.3246	 -0.473315	
4.35786	 -0.427246	
4.39113	 -0.465346	
4.4244	 -0.465250	
4.45766	 -0.457764	
4.49093	 -0.457764	
4.52419	 -0.503540	
4.55746	 -0.442505	
4.59073	 -0.466020	
4.62399	 -0.479928	
4.65726	 -0.496731	
4.69052	 -0.518799	
4.72379	 -0.549316	
4.75706	 -0.466504	
4.79032	 -0.549316	
4.82359	 -0.503540	
4.85685	 -0.506341	
4.89012	 -0.540046	
4.92339	 -0.534058	
4.95665	 -0.484900	
4.98992	 -0.499966	
5.02319	 -0.560807	
5.05645	 -0.513150	
5.08972	 -0.538212	
5.12298	 -0.534058	
5.15625	 -0.488281	
5.18952	 -0.498278	
5.22278	 -0.564575	
5.25605	 -0.493403	
5.28931	 -0.518799	
5.32258	 -0.523674	
5.35585	 -0.422467	
5.38911	 -0.477704	
5.42238	 -0.535561	
5.45565	 -0.427246	
5.48891	 -0.503540	
5.52218	 -0.462059	
5.55544	 -0.427246	
5.58871	 -0.446607	
5.62198	 -0.465012	
5.65524	 -0.434688	
5.68851	 -0.457764	
5.72177	 -0.442903	
5.75504	 -0.408369	
5.78831	 -0.496497	
5.82157	 -0.466172	
5.85484	 -0.427246	
5.8881	 -0.439273	
5.92137	 -0.439370	
5.95464	 -0.427246	
5.9879	 -0.454822	
6.02117	 -0.488281	
6.05444	 -0.432743	
6.0877	 -0.455112	
6.12097	 -0.427246	
6.15423	 -0.411987	
6.1875	 -0.455402	
6.22077	 -0.411987	
6.25403	 -0.409819	
6.2873	 -0.444576	
6.32056	 -0.411987	
6.35383	 -0.410109	
6.3871	 -0.411987	
6.42036	 -0.398413	
6.45363	 -0.396729	
6.4869	 -0.442505	
6.52016	 -0.366211	
6.55343	 -0.413285	
6.58669	 -0.426045	
6.61996	 -0.411987	
6.65323	 -0.382478	
6.68649	 -0.442505	
6.71976	 -0.368654	
6.75302	 -0.396729	
6.78629	 -0.503540	
6.81956	 -0.412512	
6.85282	 -0.471739	
6.88609	 -0.442174	
6.91935	 -0.487812	
6.95262	 -0.427108	
6.98589	 -0.427369	
7.01915	 -0.457819	
7.05242	 -0.473022	
7.08569	 -0.488779	
7.11895	 -0.487936	
7.15222	 -0.457321	
7.18548	 -0.503001	
7.21875	 -0.457764	
7.25202	 -0.471558	
7.28528	 -0.487452	
7.31855	 -0.473948	
7.35181	 -0.472000	
7.38508	 -0.489400	
7.41835	 -0.473022	
7.45161	 -0.475648	
7.48488	 -0.474432	
7.51815	 -0.453246	
7.55141	 -0.410385	
7.58468	 -0.471323	
7.61794	 -0.467634	
7.65121	 -0.429139	
7.68448	 -0.425257	
7.71774	 -0.396729	
7.75101	 -0.422881	
7.78427	 -0.442505	
7.81754	 -0.399105	
7.85081	 -0.391783	
7.88407	 -0.429816	
7.91734	 -0.409321	
7.9506	 -0.434216	
7.98387	 -0.473022	
8.01714	 -0.421334	
8.0504	 -0.454711	
8.08367	 -0.473022	
8.11694	 -0.399975	
8.1502	 -0.462994	
8.18347	 -0.461203	
8.21673	 -0.423710	
8.25	 -0.503540	
8.28327	 -0.503540	
8.31653	 -0.503540	
8.3498	 -0.541470	
8.38306	 -0.564575	
8.41633	 -0.488281	
8.4496	 -0.479855	
8.48286	 -0.545007	
8.51613	 -0.525245	
8.5494	 -0.525051	
8.58266	 -0.488281	
8.61593	 -0.514102	
8.64919	 -0.509212	
8.68246	 -0.513909	
8.71573	 -0.478308	
8.74899	 -0.523882	
8.78226	 -0.559395	
8.81552	 -0.493558	
8.84879	 -0.534058	
8.88206	 -0.534058	
8.91532	 -0.503540	
8.94859	 -0.528394	
8.98185	 -0.539818	
9.01512	 -0.509397	
9.04839	 -0.524752	
9.08165	 -0.549316	
9.11492	 -0.482134	
9.14819	 -0.564575	
9.18145	 -0.549316	
9.21472	 -0.497103	
9.24798	 -0.525332	
9.28125	 -0.547318	
9.31452	 -0.499930	
9.34778	 -0.496716	
9.38105	 -0.564575	
9.41431	 -0.503540	
9.44758	 -0.518799	
9.48085	 -0.540430	
9.51411	 -0.511492	
9.54738	 -0.527105	
9.58065	 -0.518799	
9.61391	 -0.503476	
9.64718	 -0.549445	
9.68044	 -0.526589	
9.71371	 -0.518799	
9.74698	 -0.550025	
9.78024	 -0.527782	
9.81351	 -0.542235	
9.84677	 -0.541042	
9.88004	 -0.481393	
9.91331	 -0.467907	
9.94657	 -0.551186	
9.97984	 -0.534058	
10.0131	 -0.518799	
10.0464	 -0.549316	
10.0796	 -0.512491	
10.1129	 -0.482070	
10.1462	 -0.527943	
10.1794	 -0.488281	
10.2127	 -0.497619	
10.246	 -0.507150	
10.2792	 -0.513071	
10.3125	 -0.538054	
10.3458	 -0.482747	
10.379	 -0.442505	
10.4123	 -0.473022	
10.4456	 -0.447749	
10.4788	 -0.447468	
10.5121	 -0.406936	
10.5454	 -0.468068	
10.5786	 -0.422388	
10.6119	 -0.411987	
10.6452	 -0.453099	
10.6784	 -0.398284	
10.7117	 -0.401200	
10.745	 -0.433756	
10.7782	 -0.390025	
10.8115	 -0.385651	
10.8448	 -0.420156	
